PathFileType	4	(X/Y/Z)	C:/Users/beibeiliu/ov580/test_trc/User3\sequence.18_training_dense_left.trc
DataRate	CameraRate	NumFrames	NumMarkers	Units	OrigDataRate	OrigDataStartFrame	OrigNumFrames
120	120	7	19	mm	120	98	261
Frame#	Time	ThumbCMC			ThumbMCP			ThumbIP			ThumbTip			IndexMCP			IndexPIP			IndexTip			MiddleMCP			MiddlePIP			MiddleTip			RingMCP			RingPIP			RingTip			PinkyMCP			PinkyPIP			PinkyTip			BackHand1			BackHand2			BackHand3	
		X0	Y0	Z0	X1	Y1	Z1	X2	Y2	Z2	X3	Y3	Z3	X4	Y4	Z4	X5	Y5	Z5	X6	Y6	Z6	X7	Y7	Z7	X8	Y8	Z8	X9	Y9	Z9	X10	Y10	Z10	X11	Y11	Z11	X12	Y12	Z12	X13	Y13	Z13	X14	Y14	Z14	X15	Y15	Z15	X16	Y16	Z16	X17	Y17	Z17	X18	Y18	Z18	
97	0.808333	-228.417	-27.0225	-7.23171	-226.743	-30.4768	-35.6484	-223.991	-37.1675	-62.7463	-221.551	-42.1505	-89.0699	-185.728	-49.9953	-61.3572	-169.689	-19.5191	-49.734	-193.186	-26.6565	-25.2056	-165.624	-60.1709	-47.0771	-155.482	-28.0029	-39.1941	-182.855	-28.4831	-11.9102	-156.912	-67.1772	-36.8225	-143.969	-41.5754	-27.6398	-170.523	-37.3223	-6.78301	-155.029	-84.4782	-19.4462	-138.084	-83.4601	-36.1274	-119.295	-83.595	-49.731	-201.067	-82.0382	0.730343	-212.124	-70.5549	31.1176	-225.558	-61.0274	-5.179	
98	0.816667	-230.26	-23.2859	-7.80763	-228.354	-24.9436	-36.2574	-226.31	-35.1089	-66.524	-221.375	-39.2794	-85.7325	-186.708	-52.1598	-60.2565	-169.534	-23.6984	-50.5652	-190.034	-25.9047	-25.4736	-169.632	-62.0437	-49.8743	-155.788	-33.7803	-45.6045	-181.968	-30.2135	-11.6976	-159.317	-71.0517	-37.378	-144.845	-47.7081	-30.8439	-169.288	-38.1534	-10.1995	-158.987	-87.2214	-20.7727	-142.881	-87.8967	-37.6158	-123.887	-91.5071	-52.982	-201.966	-82.1154	1.24004	-212.402	-70.0014	31.6512	-229.692	-55.1183	-2.01468	
99	0.825	-225.633	-24.734	-7.58347	-226.625	-25.7199	-36.2804	-227.47	-28.928	-63.8925	-223.383	-32.1904	-84.7812	-187.21	-51.6538	-61.7412	-168.548	-27.5431	-54.5993	-189.229	-27.3451	-25.3121	-173.742	-64.7711	-50.924	-157.624	-34.6058	-44.6548	-182.284	-30.204	-12.3654	-161.172	-72.6814	-39.2453	-148.906	-47.5579	-34.2317	-172.134	-38.4079	-12.2456	-165.413	-88.9859	-21.7772	-148.662	-91.8525	-37.6509	-132.796	-94.2624	-53.5806	-205.043	-83.3433	3.66098	-213.547	-69.9535	28.5577	-230.653	-56.5366	1.1056	
100	0.833333	-222.952	-18.267	-1.92654	-226.787	-19.8696	-35.0728	-227.694	-23.8089	-61.4821	-226.781	-25.8436	-83.9927	-194.103	-51.3118	-62.4404	-170.224	-31.1595	-56.9042	-188.36	-29.4376	-25.1675	-175.238	-63.995	-54.5257	-158.365	-39.0685	-47.2824	-182.621	-30.0606	-14.2998	-170.226	-75.2526	-40.9013	-151.931	-51.0603	-36.8676	-173.084	-40.3753	-9.68495	-167.483	-94.6281	-24.7131	-156.426	-95.3459	-42.0725	-141.27	-100.905	-58.1912	-208.875	-82.4865	1.83299	-216.268	-65.8016	30.8005	-230.98	-50.4921	-0.754676	
101	0.841667	-221.515	-16.119	-5.44268	-221.871	-16.2611	-30.5994	-225.802	-19.6805	-59.4085	-227.251	-19.5839	-82.2467	-199.14	-48.5875	-64.4882	-173.085	-32.4008	-59.7478	-187.893	-30.8293	-25.3695	-186.817	-65.1253	-55.1093	-161.531	-42.803	-45.6113	-179.87	-35.6925	-14.5364	-177.803	-75.7718	-44.8738	-154.96	-54.9286	-34.2845	-172.255	-42.5386	-10.0381	-179.596	-97.4072	-29.8492	-169.348	-97.9355	-46.4728	-153.453	-106.944	-64.9196	-218.042	-79.5986	0.0930975	-217.849	-67.9312	26.6653	-235.024	-46.942	-3.1419	
102	0.85	-217.65	-10.1388	-3.24195	-221.695	-8.42647	-31.6227	-224.657	-9.30425	-57.8064	-226.687	-8.79712	-81.0397	-202.57	-41.7171	-67.9169	-174.223	-31.9143	-59.7205	-184.079	-29.7271	-28.5645	-192.499	-63.4692	-58.5507	-166.869	-43.5116	-50.7841	-183.118	-36.8453	-15.0912	-187.274	-76.8776	-45.7955	-162.298	-58.4215	-38.5624	-173.594	-46.2752	-9.74407	-195.471	-93.9071	-34.5539	-183.267	-97.3913	-55.4889	-169.885	-108.025	-72.1123	-226.285	-75.1129	-2.8856	-225.521	-61.4261	23.7146	-235.892	-40.7146	-1.15519	
103	0.858333	-209.982	-9.23098	0.937559	-214.891	-2.48555	-25.4467	-220.258	2.90462	-54.5821	-223.546	4.22806	-77.3169	-207.157	-36.6316	-66.3598	-175.047	-33.4965	-59.0814	-185.474	-27.8595	-27.0456	-201.248	-56.5294	-60.4112	-170.532	-47.7574	-49.1052	-183.917	-37.9744	-16.8678	-198.492	-70.0426	-50.7919	-169.857	-61.6566	-42.803	-177.758	-48.5563	-11.1147	-209.801	-89.1992	-42.0181	-198.289	-91.7673	-61.6147	-187.817	-100.926	-81.5221	-233.983	-66.236	-5.6842	-230.487	-57.2275	22.8299	-235.23	-31.7635	0.554557	
